<svg xmlns="http://www.w3.org/2000/svg" viewBox="0 0 64 64">
  <defs>
    <linearGradient id="rocketGrad" x1="0%" y1="0%" x2="100%" y2="100%">
      <stop offset="0%" style="stop-color:#667eea"/>
      <stop offset="100%" style="stop-color:#764ba2"/>
    </linearGradient>
    <linearGradient id="flameGrad" x1="0%" y1="0%" x2="0%" y2="100%">
      <stop offset="0%" style="stop-color:#ff6b6b"/>
      <stop offset="50%" style="stop-color:#ffd93d"/>
      <stop offset="100%" style="stop-color:#ff8c00"/>
    </linearGradient>
  </defs>
  <path d="M32 4 C32 4 16 16 16 36 C16 44 24 52 32 52 C40 52 48 44 48 36 C48 16 32 4 32 4 Z" 
        fill="url(#rocketGrad)"/>
  <circle cx="32" cy="24" r="6" fill="#fff" opacity="0.9"/>
  <circle cx="32" cy="24" r="3" fill="#667eea"/>
  <path d="M16 44 L12 52 L20 48 Z" fill="#5a67d8"/>
  <path d="M48 44 L52 52 L44 48 Z" fill="#5a67d8"/>
  <path d="M24 52 Q28 58 32 52 Q36 58 40 52 Q36 60 32 60 Q28 60 24 52 Z" 
        fill="url(#flameGrad)">
    <animate attributeName="opacity" values="1;0.7;1" dur="0.5s" repeatCount="indefinite"/>
  </path>
  <path d="M28 52 Q32 56 36 52 Q32 58 28 52 Z" fill="#fff" opacity="0.8">
    <animate attributeName="opacity" values="0.8;0.4;0.8" dur="0.3s" repeatCount="indefinite"/>
  </path>
</svg>
